# xmcd CD database file
#
# Track frame offsets:
#	150
#	45512
#	78332
#	144155
#	173072
#	201487
#	227822
#	251145
#	264940
#	294385
#	320662
#
# Disc length: 4608 seconds
#
# Revision: 1
# Processed by: cddbd v1.5.1PL2 Copyright (c) Steve Scherf et al.
# Submitted via: CDex 1.51
#
DISCID=9811fe0b
DTITLE=Lou Donaldson - The Complete Blue Note Sessions 1957-60 CD 1
DYEAR=2002
DGENRE=Jazz
TTITLE0=Sputnik
TTITLE1=Dewey Square
TTITLE2=Strollin' In
TTITLE3=Groovin' High
TTITLE4=Three Little Words
TTITLE5=Smooth Groove
TTITLE6=Just Friends
TTITLE7=Blue Moon
TTITLE8=Jump Up
TTITLE9=Don't Take Your Love From Me
TTITLE10=Confirmation
EXTD=YEAR: 2002
EXTT0=
EXTT1=
EXTT2=
EXTT3=
EXTT4=
EXTT5=
EXTT6=
EXTT7=
EXTT8=
EXTT9=
EXTT10=
PLAYORDER=
